<?xml version="1.0" encoding="UTF-8"?>
<svg id="Ebene_1" data-name="Ebene 1" xmlns="http://www.w3.org/2000/svg" viewBox="0 0 50 33.52">
  <path d="M42.93,10.12h-.79V3.75C42.14,1.68,40.46,0,38.39,0H11.61C9.54,0,7.86,1.68,7.86,3.75v6.37h-.79C3.2,10.12.05,13.27.05,17.13v10.91h1.45v5.47h4.5v-5.47h38v5.47h4.5v-5.47h1.45v-10.91c0-3.87-3.15-7.01-7.01-7.01ZM9.36,3.75c0-1.24,1.01-2.25,2.25-2.25h26.79c1.24,0,2.25,1.01,2.25,2.25v6.37h-2.42v-3.2c0-1.24-1.01-2.25-2.25-2.25h-7.22c-1.24,0-2.25,1.01-2.25,2.25v3.2h-3.01v-3.2c0-1.24-1.01-2.25-2.25-2.25h-7.22c-1.24,0-2.25,1.01-2.25,2.25v3.2h-2.42V3.75ZM36.73,6.92v3.2h-8.72v-3.2c0-.41.34-.75.75-.75h7.22c.41,0,.75.34.75.75ZM21.99,6.92v3.2h-8.72v-3.2c0-.41.34-.75.75-.75h7.22c.41,0,.75.34.75.75ZM7.07,11.62h35.87c3.04,0,5.51,2.47,5.51,5.51v3.94H1.55v-3.94c0-3.04,2.47-5.51,5.51-5.51ZM4.5,32.02h-1.5v-3.97h1.5v3.97ZM47,32.02h-1.5v-3.97h1.5v3.97ZM1.55,26.55v-3.97h46.9v3.97H1.55Z" fill="#f1f3f4"/>
</svg>
