<?xml version="1.0" encoding="UTF-8"?>
<svg id="Ebene_1" data-name="Ebene 1" xmlns="http://www.w3.org/2000/svg" viewBox="0 0 24 24">
  <path d="M20.89,7.76h-.61v-2.12c0-1.49-1.21-2.7-2.7-2.7H6.42c-1.49,0-2.7,1.21-2.7,2.7v2.12h-.61c-1.72,0-3.11,1.5-3.11,3.35v6.95h1.5v3h4.5v-3h12v3h4.5v-3h1.5v-6.95c0-1.85-1.39-3.35-3.11-3.35ZM5.22,5.64c0-.66.54-1.2,1.2-1.2h11.17c.66,0,1.2.54,1.2,1.2v2.12h-.77v-1.37c0-.66-.55-1.2-1.23-1.2h-2.55c-.68,0-1.23.54-1.23,1.2v1.37h-2.01v-1.37c0-.66-.55-1.2-1.23-1.2h-2.55c-.68,0-1.23.54-1.23,1.2v1.37h-.77v-2.12ZM16.51,7.58v.18h-2.01v-1.03c0-.13.11-.24.24-.24h1.52c.13,0,.24.11.24.24v.85ZM9.5,6.73v1.03h-2.01v-1.03c0-.13.11-.24.24-.24h1.52c.13,0,.24.11.24.24ZM4.5,19.56h-1.5v-1.5h1.5v1.5ZM21,19.56h-1.5v-1.5h1.5v1.5ZM22.5,16.54v.02H1.5v-1.5h21v1.48ZM22.5,12.63v.93H1.5v-2.45c0-1.02.72-1.85,1.61-1.85h17.79c.89,0,1.61.83,1.61,1.85v1.52Z" fill="#f1f3f4"/>
</svg>
