<?xml version="1.0" encoding="UTF-8"?>
<svg id="Ebene_1" data-name="Ebene 1" xmlns="http://www.w3.org/2000/svg" width="24" height="24" viewBox="0 0 24 24">
  <path d="M0,11.7c.11-1.28,1.62-2.9,2.92-2.9h.82v-3.35s.14-.39.16-.44c.26-.56.81-.94,1.41-1.07h13.24c.63.08,1.23.49,1.5,1.07.03.06.16.42.16.44v3.35h.82c1.24,0,2.92,1.68,2.92,2.92v5.68h-.75v2.62h-1.87v-2.62H2.62v2.62H.75v-2.62s-.67.03-.75,0v-5.71ZM19.46,8.8v-3.06c0-.05-.1-.36-.13-.43-.18-.4-.6-.58-1.01-.62H5.73c-.45.01-.91.2-1.11.62-.03.07-.13.38-.13.43v3.06h1.12v-1.75c0-.3.56-.83.88-.85,1.21.06,2.54-.11,3.73-.01.37.03.7.26.87.58.02.05.13.27.13.29v1.75h1.5v-1.75c0-.3.56-.83.88-.85,1.21.06,2.54-.11,3.73-.01.37.03.7.26.87.58.02.05.13.27.13.29v1.75h1.12ZM10.48,8.8v-1.52c0-.2-.27-.33-.44-.35-.98-.1-2.13.08-3.14,0-.2-.04-.54.15-.54.35v1.52h4.12ZM17.59,8.8v-1.52c0-.2-.27-.33-.44-.35-.98-.1-2.13.08-3.14,0-.2-.04-.54.15-.54.35v1.52h4.12ZM23.2,14.04v-2.04c0-1.25-1.32-2.45-2.55-2.46H3.39c-1.26-.04-2.64,1.17-2.64,2.46v2.04h22.46ZM.75,14.78v1.87h22.46v-1.87H.75ZM1.87,17.4h-.37v1.87h.37v-1.87ZM22.46,17.4h-.37v1.87h.37v-1.87Z" fill="#f1f3f4"/>
</svg>
