<?xml version="1.0" encoding="UTF-8"?>
<svg id="Ebene_3_Kopie" data-name="Ebene 3 Kopie" xmlns="http://www.w3.org/2000/svg" viewBox="0 0 50 50">
  <path d="M42.93,18.37h-.79v-6.37c0-2.07-1.68-3.75-3.75-3.75H11.61c-2.07,0-3.75,1.68-3.75,3.75v6.37h-.79C3.2,18.37.05,21.51.05,25.38v10.91h1.45v5.47h4.5v-5.47h38v5.47h4.5v-5.47h1.45v-10.91c0-3.87-3.15-7.01-7.01-7.01ZM9.36,12c0-1.24,1.01-2.25,2.25-2.25h26.79c1.24,0,2.25,1.01,2.25,2.25v6.37h-2.42v-3.2c0-1.24-1.01-2.25-2.25-2.25h-7.22c-1.24,0-2.25,1.01-2.25,2.25v3.2h-3.01v-3.2c0-1.24-1.01-2.25-2.25-2.25h-7.22c-1.24,0-2.25,1.01-2.25,2.25v3.2h-2.42v-6.37ZM36.73,15.17v3.2h-8.72v-3.2c0-.41.34-.75.75-.75h7.22c.41,0,.75.34.75.75ZM21.99,15.17v3.2h-8.72v-3.2c0-.41.34-.75.75-.75h7.22c.41,0,.75.34.75.75ZM7.07,19.87h35.87c3.04,0,5.51,2.47,5.51,5.51v3.94H1.55v-3.94c0-3.04,2.47-5.51,5.51-5.51ZM4.5,40.26h-1.5v-3.97h1.5v3.97ZM47,40.26h-1.5v-3.97h1.5v3.97ZM1.55,34.79v-3.97h46.9v3.97H1.55Z" fill="#f1f3f4"/>
</svg>
