<?xml version="1.0" encoding="UTF-8"?>
<svg id="Ebene_2" data-name="Ebene 2" xmlns="http://www.w3.org/2000/svg" width="50" height="50" viewBox="0 0 50 50">
  <path d="M7.14,11.58c.16-1.9,2.42-4.33,4.36-4.33h1.22V2.27s.21-.58.24-.66c.38-.84,1.21-1.41,2.1-1.6h19.74c.94.11,1.83.73,2.23,1.6.04.08.24.63.24.66v4.99h1.22c1.85,0,4.36,2.51,4.36,4.36v8.48h-1.12v3.91h-2.79v-3.91H11.05v3.91h-2.79v-3.91c0-.06-1,.04-1.12,0v-8.51ZM36.16,7.26V2.69c0-.08-.15-.54-.2-.64-.27-.59-.89-.87-1.51-.93H15.68c-.67.02-1.36.29-1.65.93-.05.1-.2.56-.2.64v4.57h1.67v-2.62c0-.45.83-1.24,1.31-1.27,1.8.08,3.79-.17,5.57-.02.55.05,1.05.38,1.3.86.04.07.2.4.2.43v2.62h2.23v-2.62c0-.45.83-1.24,1.31-1.27,1.8.08,3.79-.17,5.57-.02.55.05,1.05.38,1.3.86.04.07.2.4.2.43v2.62h1.67ZM22.77,7.26v-2.27c0-.3-.4-.5-.66-.52-1.47-.15-3.18.12-4.68,0-.3-.06-.8.22-.8.53v2.27h6.14ZM33.37,7.26v-2.27c0-.3-.4-.5-.66-.52-1.47-.15-3.18.12-4.68,0-.3-.06-.8.22-.8.53v2.27h6.14ZM41.74,15.07v-3.03c0-1.86-1.97-3.65-3.8-3.66H12.2c-1.88-.05-3.94,1.75-3.94,3.66v3.03h33.48ZM8.26,16.19v2.79h33.48v-2.79H8.26ZM9.93,20.09h-.56v2.79h.56v-2.79ZM40.63,20.09h-.56v2.79h.56v-2.79Z" fill="#f1f3f4"/>
</svg>
