<?xml version="1.0" encoding="UTF-8"?>
<svg id="Ebene_1" data-name="Ebene 1" xmlns="http://www.w3.org/2000/svg" viewBox="0 0 50 50">
  <path d="M0,24.42c.22-2.66,3.39-6.05,6.1-6.05h1.71v-6.98s.29-.81.34-.93c.54-1.18,1.69-1.97,2.94-2.24h27.63c1.32.16,2.57,1.03,3.12,2.24.05.11.34.88.34.93v6.98h1.71c2.59,0,6.1,3.51,6.1,6.1v11.87h-1.56v5.47h-3.91v-5.47H5.47v5.47H1.56v-5.47c0-.08-1.4.06-1.56,0v-11.91ZM40.62,18.36v-6.4c0-.11-.21-.75-.28-.9-.38-.83-1.25-1.22-2.12-1.3H11.96c-.93.02-1.9.41-2.31,1.3-.07.15-.28.79-.28.9v6.4h2.34v-3.66c0-.63,1.16-1.74,1.83-1.78,2.52.12,5.31-.23,7.79-.03.77.06,1.47.54,1.82,1.21.05.1.27.56.27.6v3.66h3.12v-3.66c0-.63,1.16-1.74,1.83-1.78,2.52.12,5.31-.23,7.79-.03.77.06,1.47.54,1.82,1.21.05.1.27.56.27.6v3.66h2.34ZM21.88,18.36v-3.17c0-.42-.55-.69-.93-.73-2.05-.21-4.46.16-6.55,0-.42-.09-1.12.3-1.12.74v3.17h8.59ZM36.72,18.36v-3.17c0-.42-.55-.69-.93-.73-2.05-.21-4.46.16-6.55,0-.42-.09-1.12.3-1.12.74v3.17h8.59ZM48.44,29.3v-4.25c0-2.61-2.76-5.11-5.32-5.13H7.08c-2.64-.08-5.51,2.44-5.51,5.13v4.25h46.88ZM1.56,30.86v3.91h46.88v-3.91H1.56ZM3.91,36.33h-.78v3.91h.78v-3.91ZM46.88,36.33h-.78v3.91h.78v-3.91Z" fill="#f1f3f4"/>
</svg>
